<svg width="1758" height="407" viewBox="0 0 1758 407" fill="none" xmlns="http://www.w3.org/2000/svg">
<path d="M100.809 179.456H84.4335C81.5793 179.456 79.2656 181.769 79.2656 184.624V329.972C79.2656 332.826 81.5793 335.139 84.4335 335.139H158.29C161.145 335.139 163.458 332.826 163.458 329.972V244.884C163.458 240.087 169.427 237.878 172.55 241.521L251.261 333.335C252.243 334.48 253.676 335.139 255.184 335.139H300.403C303.257 335.139 305.571 332.826 305.571 329.972V274.77C305.571 273.385 305.015 272.058 304.029 271.087L264.739 232.401C263.772 231.45 262.47 230.916 261.113 230.916H170.159C168.788 230.916 167.474 230.372 166.504 229.402L125.38 188.278C122.124 185.022 124.43 179.456 129.034 179.456H253.273C254.643 179.456 255.958 178.911 256.927 177.942L304.057 130.812C305.027 129.843 305.571 128.528 305.571 127.158V81.703C305.571 78.8489 303.257 76.5352 300.403 76.5352H255.166C253.668 76.5352 252.244 77.1848 251.263 78.3159L168.954 173.166C168.36 173.851 167.497 174.245 166.589 174.245C164.86 174.245 163.458 172.843 163.458 171.113V81.703C163.458 78.8489 161.145 76.5352 158.29 76.5352H84.4335C81.5793 76.5352 79.2656 78.8489 79.2656 81.703V127.839C79.2656 128.793 79.5298 129.729 80.0288 130.542L105.214 171.585C107.327 175.028 104.849 179.456 100.809 179.456Z" fill="url(#paint0_linear_209_719)"/>
<path d="M410.144 286.568H391.798V113.446H410.144V191.48H457.946L507.299 113.446H528.229L473.708 199.232L528.487 286.568H507.299L458.463 209.309H410.144V286.568ZM587.332 289.152C548.057 289.152 527.644 261.504 527.644 222.746C527.644 183.987 550.64 156.339 587.074 156.339C617.822 156.339 643.145 174.943 643.145 212.668C643.145 218.611 642.628 224.296 641.853 227.913H545.214C545.989 256.078 557.1 272.615 587.591 272.615C613.43 272.615 623.765 260.988 623.765 245.484V243.934H642.111V245.742C642.111 270.29 619.889 289.152 587.332 289.152ZM586.557 172.359C558.134 172.359 546.765 188.638 545.214 214.477H625.574C626.608 184.245 611.621 172.359 586.557 172.359ZM685.658 286.568H667.054V158.923H683.85V185.279H684.625C689.534 171.842 704.004 156.339 730.36 156.339C763.176 156.339 778.162 177.527 778.162 208.276V286.568H759.817V212.41C759.817 184.762 750.773 172.618 724.675 172.618C699.353 172.618 685.658 184.504 685.658 212.927V286.568ZM852.127 286.827C828.613 286.827 814.919 277.525 814.919 250.394V174.943H793.472V158.923H815.177L819.57 126.365H833.523V158.923H873.832V174.943H833.523V251.427C833.523 266.414 840.499 269.773 857.037 269.773H873.832V284.76C869.439 285.535 861.429 286.827 852.127 286.827ZM910.994 286.568H892.39V157.372H909.185V178.819H910.477C914.611 166.933 927.014 156.339 945.877 156.339C972.233 156.339 982.31 175.202 982.31 197.165V204.4H963.706V200.007C963.706 180.111 957.504 172.359 939.159 172.359C919.263 172.359 910.994 181.403 910.994 202.074V286.568ZM1057.99 289.152C1020.53 289.152 995.979 261.504 995.979 222.746C995.979 183.987 1020.53 156.339 1057.99 156.339C1095.2 156.339 1118.97 183.987 1118.97 222.746C1118.97 261.504 1095.2 289.152 1057.99 289.152ZM1057.99 272.615C1088.74 272.615 1100.89 254.528 1100.89 222.746C1100.89 190.963 1088.74 173.134 1057.99 173.134C1026.73 173.134 1014.32 190.963 1014.32 222.746C1014.32 254.528 1026.73 272.615 1057.99 272.615ZM1216.87 289.152C1167.77 289.152 1138.06 254.011 1138.06 200.007C1138.06 146.003 1167.77 110.862 1216.87 110.862C1259.24 110.862 1287.92 135.926 1287.92 175.202V177.269H1268.29V175.202C1268.29 144.711 1252.01 128.691 1215.83 128.691C1175.26 128.691 1157.44 151.946 1157.44 200.007C1157.44 248.068 1175.26 271.323 1215.83 271.323C1252.01 271.323 1268.29 255.303 1268.29 224.813V222.746H1287.92V224.813C1287.92 264.088 1259.24 289.152 1216.87 289.152ZM1347.41 289.152C1324.16 289.152 1306.59 277.266 1306.59 255.82C1306.59 233.598 1323.12 223.779 1351.03 219.903L1395.99 213.702V204.4C1395.99 181.92 1386.43 172.876 1362.4 172.876C1339.14 172.876 1328.29 181.92 1328.29 202.333V206.209H1310.46V204.141C1310.46 177.527 1330.87 156.339 1363.95 156.339C1398.06 156.339 1413.56 178.302 1413.56 206.725V286.568H1396.76V263.055L1395.47 262.796C1387.98 277.525 1371.7 289.152 1347.41 289.152ZM1324.67 254.528C1324.67 267.706 1332.94 273.649 1352.58 273.649C1374.54 273.649 1395.99 262.28 1395.99 232.048V227.655L1352.58 233.856C1332.17 236.699 1324.67 240.833 1324.67 254.528ZM1460.58 286.568H1441.98V157.372H1458.77V178.819H1460.06C1464.2 166.933 1476.6 156.339 1495.46 156.339C1521.82 156.339 1531.9 175.202 1531.9 197.165V204.4H1513.29V200.007C1513.29 180.111 1507.09 172.359 1488.75 172.359C1468.85 172.359 1460.58 181.403 1460.58 202.074V286.568ZM1601.64 289.152C1565.72 289.152 1545.57 263.055 1545.57 222.746C1545.57 182.436 1564.69 156.339 1599.57 156.339C1624.12 156.339 1639.88 169.259 1645.3 183.212V113.446H1663.91V286.568H1647.37V262.021H1646.34C1640.65 278.041 1625.67 289.152 1601.64 289.152ZM1564.17 222.746C1564.17 261.763 1579.41 273.132 1604.74 273.132C1630.06 273.132 1645.3 259.954 1645.3 233.856V211.893C1645.3 185.537 1630.06 172.359 1604.74 172.359C1579.67 172.359 1564.17 183.728 1564.17 222.746Z" fill="#3C3C3C"/>
<defs>
<linearGradient id="paint0_linear_209_719" x1="192.418" y1="76.5352" x2="192.418" y2="335.139" gradientUnits="userSpaceOnUse">
<stop stop-color="#734BFF"/>
<stop offset="1" stop-color="#4628B2"/>
</linearGradient>
</defs>
</svg>
